<svg xmlns="http://www.w3.org/2000/svg" width="1736" height="553" viewBox="0 0 1736 553" fill="none">
    <g clip-path="url(#clip0_154_1609)">
        <path d="M1125.8 423.61C1162.4 489.32 1110.55 537.752 1080.05 553.754C1048.17 563.881 1047.8 587.509 1185.8 667.771C1801.55 947.937 1783.92 251.459 1680.05 85.3103C1633.04 10.1183 1521.8 -44.4588 1479.8 59.4315C1437.8 163.322 1399.92 171.573 1261.92 227.456C1123.92 283.34 1080.05 341.473 1125.8 423.61Z" fill="url(#paint0_radial_154_1609)"/>
        <path d="M633.995 338.299C724.721 378.651 567.995 480.82 437.87 460.567C35.8702 424.562 313.745 162.399 485.87 176.276C624.182 187.427 467.87 264.414 633.995 338.299Z" fill="url(#paint1_radial_154_1609)"/>
        <path d="M425.895 268.297L412.651 303.469L377.541 290.072L364.07 325.346L328.961 311.949L315.038 347.426L280.155 333.927M414.86 243.786L401.616 278.958L366.506 265.561L353.036 300.834L317.926 287.437L304.004 322.914L269.12 309.415" stroke="#D2DBE1" stroke-opacity="0.5" stroke-width="4"/>
        <path d="M1200.01 249.988L1200.97 228.821L1219.78 219.07L1237.63 230.486L1236.67 251.653L1217.86 261.404L1200.01 249.988Z" stroke="#D2DBE1" stroke-opacity="0.5" stroke-width="4"/>
        <path d="M488.062 391.605L498.656 431.994M473.167 417.097L513.55 406.502" stroke="#D2DBE1" stroke-opacity="0.5" stroke-width="4" stroke-linecap="round"/>
        <circle cx="1208.07" cy="366.587" r="1.76794" transform="rotate(-24.9073 1208.07 366.587)" fill="#D2DBE1" fill-opacity="0.5"/>
        <circle cx="1222.82" cy="359.737" r="1.76794" transform="rotate(-24.9073 1222.82 359.737)" fill="#D2DBE1" fill-opacity="0.5"/>
        <circle cx="1237.57" cy="352.887" r="1.76794" transform="rotate(-24.9073 1237.57 352.887)" fill="#D2DBE1" fill-opacity="0.5"/>
        <circle cx="1252.32" cy="346.037" r="1.76794" transform="rotate(-24.9073 1252.32 346.037)" fill="#D2DBE1" fill-opacity="0.5"/>
        <circle cx="1267.08" cy="339.187" r="1.76794" transform="rotate(-24.9073 1267.08 339.187)" fill="#D2DBE1" fill-opacity="0.5"/>
        <circle cx="1214.92" cy="381.339" r="1.76794" transform="rotate(-24.9073 1214.92 381.339)" fill="#D2DBE1" fill-opacity="0.5"/>
        <circle cx="1229.67" cy="374.489" r="1.76794" transform="rotate(-24.9073 1229.67 374.489)" fill="#D2DBE1" fill-opacity="0.5"/>
        <circle cx="1244.42" cy="367.639" r="1.76794" transform="rotate(-24.9073 1244.42 367.639)" fill="#D2DBE1" fill-opacity="0.5"/>
        <circle cx="1259.17" cy="360.79" r="1.76794" transform="rotate(-24.9073 1259.17 360.79)" fill="#D2DBE1" fill-opacity="0.5"/>
        <circle cx="1273.93" cy="353.94" r="1.76794" transform="rotate(-24.9073 1273.93 353.94)" fill="#D2DBE1" fill-opacity="0.5"/>
        <circle cx="1221.77" cy="396.092" r="1.76794" transform="rotate(-24.9073 1221.77 396.092)" fill="#D2DBE1" fill-opacity="0.5"/>
        <circle cx="1236.52" cy="389.242" r="1.76794" transform="rotate(-24.9073 1236.52 389.242)" fill="#D2DBE1" fill-opacity="0.5"/>
        <circle cx="1251.27" cy="382.392" r="1.76794" transform="rotate(-24.9073 1251.27 382.392)" fill="#D2DBE1" fill-opacity="0.5"/>
        <circle cx="1266.02" cy="375.542" r="1.76794" transform="rotate(-24.9073 1266.02 375.542)" fill="#D2DBE1" fill-opacity="0.5"/>
        <circle cx="1280.78" cy="368.692" r="1.76794" transform="rotate(-24.9073 1280.78 368.692)" fill="#D2DBE1" fill-opacity="0.5"/>
        <circle cx="1228.62" cy="410.844" r="1.76794" transform="rotate(-24.9073 1228.62 410.844)" fill="#D2DBE1" fill-opacity="0.5"/>
        <circle cx="1243.37" cy="403.994" r="1.76794" transform="rotate(-24.9073 1243.37 403.994)" fill="#D2DBE1" fill-opacity="0.5"/>
        <circle cx="1258.12" cy="397.144" r="1.76794" transform="rotate(-24.9073 1258.12 397.144)" fill="#D2DBE1" fill-opacity="0.5"/>
        <circle cx="1272.87" cy="390.294" r="1.76794" transform="rotate(-24.9073 1272.87 390.294)" fill="#D2DBE1" fill-opacity="0.5"/>
        <circle cx="1287.63" cy="383.444" r="1.76794" transform="rotate(-24.9073 1287.63 383.444)" fill="#D2DBE1" fill-opacity="0.5"/>
        <circle cx="1235.47" cy="425.596" r="1.76794" transform="rotate(-24.9073 1235.47 425.596)" fill="#D2DBE1" fill-opacity="0.5"/>
        <circle cx="1250.22" cy="418.746" r="1.76794" transform="rotate(-24.9073 1250.22 418.746)" fill="#D2DBE1" fill-opacity="0.5"/>
        <circle cx="1264.97" cy="411.896" r="1.76794" transform="rotate(-24.9073 1264.97 411.896)" fill="#D2DBE1" fill-opacity="0.5"/>
        <circle cx="1279.72" cy="405.046" r="1.76794" transform="rotate(-24.9073 1279.72 405.046)" fill="#D2DBE1" fill-opacity="0.5"/>
        <circle cx="1294.48" cy="398.196" r="1.76794" transform="rotate(-24.9073 1294.48 398.196)" fill="#D2DBE1" fill-opacity="0.5"/>
    </g>
    <defs>
        <radialGradient id="paint0_radial_154_1609" cx="0" cy="0" r="1" gradientUnits="userSpaceOnUse" gradientTransform="translate(2056 1002.65) rotate(-131.935) scale(1137.42 821.066)">
            <stop stop-color="#D5FDEC"/>
            <stop offset="0.432292" stop-color="#E2FEFE"/>
            <stop offset="1" stop-color="#FDFDFC"/>
        </radialGradient>
        <radialGradient id="paint1_radial_154_1609" cx="0" cy="0" r="1" gradientUnits="userSpaceOnUse" gradientTransform="translate(355.745 465.068) rotate(-57.745) scale(341.491 332.98)">
            <stop stop-color="#EBFBFB"/>
            <stop offset="1" stop-color="#FDFDFC"/>
        </radialGradient>
        <clipPath id="clip0_154_1609">
            <rect width="1736" height="553" fill="white"/>
        </clipPath>
    </defs>
</svg>