<svg xmlns="http://www.w3.org/2000/svg" width="375" height="746" viewBox="0 0 375 746" fill="none">
    <g clip-path="url(#clip0_190_74)">
        <path d="M145.247 114.792C144.419 85.6697 118.402 67.3578 105.497 61.8421C12.7447 53.155 151.872 -49.6426 271.125 -51.9178C390.377 -54.193 451.039 -8.89587 450.004 43.02C448.968 94.9359 398.038 43.02 378.162 88.3172C358.287 133.614 317.501 79.4232 276.715 114.792C235.929 150.161 146.283 151.195 145.247 114.792Z" fill="url(#paint0_radial_190_74)"/>
        <path d="M276.715 147.886C290.379 136.855 325.409 119.632 356.216 138.992C394.725 163.192 216.054 190.091 276.715 147.886Z" fill="url(#paint1_radial_190_74)"/>
        <path d="M252.285 392.78C154.856 432.273 146.283 502.39 252.285 469.93C306.321 453.383 354.602 452.432 317.501 484.202C271.125 523.915 400.315 505.299 457.664 461.036C515.013 416.773 505.282 392.78 446.691 412.637C388.1 432.493 400.315 403.743 400.315 392.78C400.315 381.818 440.066 316.665 252.285 392.78Z" fill="url(#paint2_radial_190_74)"/>
        <path d="M346.814 131.96C346.814 135.453 343.979 138.285 340.482 138.285C336.984 138.285 334.15 135.453 334.15 131.96C334.15 128.467 336.984 125.634 340.482 125.634C343.979 125.634 346.814 128.467 346.814 131.96Z" stroke="#D2DBE1" stroke-opacity="0.5"/>
        <path d="M233.379 412.985L234.481 388.767L256.025 377.611L276.468 390.672L275.367 414.891L253.823 426.047L233.379 412.985Z" stroke="#D2DBE1" stroke-opacity="0.5"/>
        <path d="M175.998 88.1631L181.486 109.064M168.281 101.355L189.203 95.8721" stroke="white" stroke-linecap="round"/>
        <path d="M318.793 478.634L323.381 496.108M312.342 489.663L329.832 485.079" stroke="#D2DBE1" stroke-opacity="0.5" stroke-linecap="round"/>
    </g>
    <defs>
        <radialGradient id="paint0_radial_190_74" cx="0" cy="0" r="1" gradientUnits="userSpaceOnUse" gradientTransform="translate(113.157 91.6266) rotate(-52.5012) scale(232.29 352.376)">
            <stop stop-color="#F0FEF8"/>
            <stop offset="0.244792" stop-color="#E2FEFE"/>
            <stop offset="1" stop-color="#FDFDFC"/>
        </radialGradient>
        <radialGradient id="paint1_radial_190_74" cx="0" cy="0" r="1" gradientUnits="userSpaceOnUse" gradientTransform="translate(113.157 91.6266) rotate(-52.5012) scale(232.29 352.376)">
            <stop stop-color="#F0FEF8"/>
            <stop offset="0.244792" stop-color="#E2FEFE"/>
            <stop offset="1" stop-color="#FDFDFC"/>
        </radialGradient>
        <radialGradient id="paint2_radial_190_74" cx="0" cy="0" r="1" gradientUnits="userSpaceOnUse" gradientTransform="translate(319.778 413.671) rotate(59.9347) scale(178.527 381.684)">
            <stop stop-color="#FEFDFD"/>
            <stop offset="1" stop-color="white" stop-opacity="0"/>
        </radialGradient>
        <clipPath id="clip0_190_74">
            <rect width="375" height="746" fill="white"/>
        </clipPath>
    </defs>
</svg>