<svg xmlns="http://www.w3.org/2000/svg" width="1440" height="826" viewBox="0 0 1440 826" fill="none">
    <g clip-path="url(#clip0_154_1612)">
        <rect y="-0.0712891" width="1440" height="826.071" fill="url(#paint0_radial_154_1612)"/>
        <path d="M596.25 100.444C594.75 47.6357 547.625 14.4308 524.25 4.42938C356.25 -11.323 608.25 -197.725 824.25 -201.851C1040.25 -205.977 1150.13 -123.84 1148.25 -29.7007C1146.38 64.4382 1054.13 -29.7006 1018.13 52.4364C982.125 134.574 908.25 36.3091 834.375 100.444C760.5 164.578 598.125 166.453 596.25 100.444Z" fill="url(#paint1_radial_154_1612)"/>
        <path d="M834.375 160.452C859.125 140.449 922.575 109.22 978.375 144.325C1048.12 188.206 724.5 236.982 834.375 160.452Z" fill="url(#paint2_radial_154_1612)"/>
        <path d="M790.126 604.518C613.654 676.129 598.125 803.273 790.126 744.413C888.001 714.409 975.451 712.684 908.251 770.292C824.251 842.303 1058.25 808.548 1162.13 728.286C1266 648.024 1248.38 604.518 1142.25 640.523C1036.13 676.528 1058.25 624.396 1058.25 604.518C1058.25 584.64 1130.25 466.497 790.126 604.518Z" fill="url(#paint3_radial_154_1612)"/>
        <path d="M960.25 131.573C960.25 137.304 955.605 141.95 949.875 141.95C944.145 141.95 939.5 137.304 939.5 131.573C939.5 125.842 944.145 121.196 949.875 121.196C955.605 121.196 960.25 125.842 960.25 131.573Z" stroke="#D2DBE1" stroke-opacity="0.5" stroke-width="4"/>
        <path d="M1117.47 702.634L1118.2 674.956L1145.87 675.81L1146.74 648.006L1174.41 648.86L1175.54 620.805L1203.08 621.784M1131.06 717.033L1131.8 689.355L1159.47 690.209L1160.33 662.405L1188.01 663.259L1189.14 635.204L1216.68 636.183" stroke="#D2DBE1" stroke-opacity="0.5" stroke-width="4"/>
        <path d="M757.004 640.574L758.941 597.921L796.843 578.272L832.807 601.277L830.87 643.93L792.968 663.579L757.004 640.574Z" stroke="#D2DBE1" stroke-opacity="0.5" stroke-width="4"/>
        <ellipse rx="2.68891" ry="2.68898" transform="matrix(0.769081 0.639151 -0.63904 0.769174 175.306 368.269)" fill="#D2DBE1" fill-opacity="0.5"/>
        <ellipse rx="2.68891" ry="2.68898" transform="matrix(0.769081 0.639151 -0.63904 0.769174 192.611 382.651)" fill="#D2DBE1" fill-opacity="0.5"/>
        <ellipse rx="2.68891" ry="2.68898" transform="matrix(0.769081 0.639151 -0.63904 0.769174 209.916 397.033)" fill="#D2DBE1" fill-opacity="0.5"/>
        <ellipse rx="2.68891" ry="2.68898" transform="matrix(0.769081 0.639151 -0.63904 0.769174 227.222 411.415)" fill="#D2DBE1" fill-opacity="0.5"/>
        <ellipse rx="2.68891" ry="2.68898" transform="matrix(0.769081 0.639151 -0.63904 0.769174 244.527 425.797)" fill="#D2DBE1" fill-opacity="0.5"/>
        <ellipse rx="2.68891" ry="2.68898" transform="matrix(0.769081 0.639151 -0.63904 0.769174 160.926 385.578)" fill="#D2DBE1" fill-opacity="0.5"/>
        <ellipse rx="2.68891" ry="2.68898" transform="matrix(0.769081 0.639151 -0.63904 0.769174 178.231 399.959)" fill="#D2DBE1" fill-opacity="0.5"/>
        <ellipse rx="2.68891" ry="2.68898" transform="matrix(0.769081 0.639151 -0.63904 0.769174 195.537 414.341)" fill="#D2DBE1" fill-opacity="0.5"/>
        <ellipse rx="2.68891" ry="2.68898" transform="matrix(0.769081 0.639151 -0.63904 0.769174 212.842 428.723)" fill="#D2DBE1" fill-opacity="0.5"/>
        <ellipse rx="2.68891" ry="2.68898" transform="matrix(0.769081 0.639151 -0.63904 0.769174 230.147 443.104)" fill="#D2DBE1" fill-opacity="0.5"/>
        <ellipse rx="2.68891" ry="2.68898" transform="matrix(0.769081 0.639151 -0.63904 0.769174 146.546 402.885)" fill="#D2DBE1" fill-opacity="0.5"/>
        <ellipse rx="2.68891" ry="2.68898" transform="matrix(0.769081 0.639151 -0.63904 0.769174 163.851 417.267)" fill="#D2DBE1" fill-opacity="0.5"/>
        <ellipse rx="2.68891" ry="2.68898" transform="matrix(0.769081 0.639151 -0.63904 0.769174 181.157 431.649)" fill="#D2DBE1" fill-opacity="0.5"/>
        <ellipse rx="2.68891" ry="2.68898" transform="matrix(0.769081 0.639151 -0.63904 0.769174 198.463 446.031)" fill="#D2DBE1" fill-opacity="0.5"/>
        <ellipse rx="2.68891" ry="2.68898" transform="matrix(0.769081 0.639151 -0.63904 0.769174 215.768 460.412)" fill="#D2DBE1" fill-opacity="0.5"/>
        <ellipse rx="2.68891" ry="2.68898" transform="matrix(0.769081 0.639151 -0.63904 0.769174 132.167 420.193)" fill="#D2DBE1" fill-opacity="0.5"/>
        <ellipse rx="2.68891" ry="2.68898" transform="matrix(0.769081 0.639151 -0.63904 0.769174 149.472 434.575)" fill="#D2DBE1" fill-opacity="0.5"/>
        <ellipse rx="2.68891" ry="2.68898" transform="matrix(0.769081 0.639151 -0.63904 0.769174 166.777 448.957)" fill="#D2DBE1" fill-opacity="0.5"/>
        <ellipse rx="2.68891" ry="2.68898" transform="matrix(0.769081 0.639151 -0.63904 0.769174 184.083 463.339)" fill="#D2DBE1" fill-opacity="0.5"/>
        <ellipse rx="2.68891" ry="2.68898" transform="matrix(0.769081 0.639151 -0.63904 0.769174 201.388 477.72)" fill="#D2DBE1" fill-opacity="0.5"/>
        <ellipse rx="2.68891" ry="2.68898" transform="matrix(0.769081 0.639151 -0.63904 0.769174 117.787 437.501)" fill="#D2DBE1" fill-opacity="0.5"/>
        <ellipse rx="2.68891" ry="2.68898" transform="matrix(0.769081 0.639151 -0.63904 0.769174 135.092 451.883)" fill="#D2DBE1" fill-opacity="0.5"/>
        <ellipse rx="2.68891" ry="2.68898" transform="matrix(0.769081 0.639151 -0.63904 0.769174 152.398 466.265)" fill="#D2DBE1" fill-opacity="0.5"/>
        <ellipse rx="2.68891" ry="2.68898" transform="matrix(0.769081 0.639151 -0.63904 0.769174 169.703 480.646)" fill="#D2DBE1" fill-opacity="0.5"/>
        <ellipse rx="2.68891" ry="2.68898" transform="matrix(0.769081 0.639151 -0.63904 0.769174 187.008 495.028)" fill="#D2DBE1" fill-opacity="0.5"/>
        <path d="M651.948 52.1572L661.889 90.0575M637.971 76.0788L675.866 66.1358" stroke="white" stroke-width="4" stroke-linecap="round"/>
        <path d="M910.59 760.196L918.901 791.881M898.906 780.195L930.586 771.883" stroke="#D2DBE1" stroke-opacity="0.5" stroke-width="4" stroke-linecap="round"/>
    </g>
    <defs>
        <radialGradient id="paint0_radial_154_1612" cx="0" cy="0" r="1" gradientUnits="userSpaceOnUse" gradientTransform="translate(720 -0.0712871) rotate(90) scale(826.071 720)">
            <stop offset="0.427083" stop-color="white"/>
            <stop offset="1" stop-color="white" stop-opacity="0"/>
        </radialGradient>
        <radialGradient id="paint1_radial_154_1612" cx="0" cy="0" r="1" gradientUnits="userSpaceOnUse" gradientTransform="translate(538.125 58.4374) rotate(-52.5319) scale(421.037 638.515)">
            <stop stop-color="#F0FEF8"/>
            <stop offset="0.317708" stop-color="#E2FEFE"/>
            <stop offset="1" stop-color="#FDFDFC"/>
        </radialGradient>
        <radialGradient id="paint2_radial_154_1612" cx="0" cy="0" r="1" gradientUnits="userSpaceOnUse" gradientTransform="translate(538.125 58.4374) rotate(-52.5319) scale(421.037 638.515)">
            <stop stop-color="#F0FEF8"/>
            <stop offset="0.317708" stop-color="#E2FEFE"/>
            <stop offset="1" stop-color="#FDFDFC"/>
        </radialGradient>
        <radialGradient id="paint3_radial_154_1612" cx="0" cy="0" r="1" gradientUnits="userSpaceOnUse" gradientTransform="translate(912.375 642.398) rotate(59.9623) scale(323.631 691.53)">
            <stop stop-color="#FEFDFD"/>
            <stop offset="1" stop-color="white" stop-opacity="0"/>
        </radialGradient>
        <clipPath id="clip0_154_1612">
            <rect width="1440" height="826" fill="white"/>
        </clipPath>
    </defs>
</svg>